<svg width="34" height="34" viewBox="0 0 34 34" fill="none" xmlns="http://www.w3.org/2000/svg">
<path d="M16.9997 18.4163C17.7821 18.4163 18.4163 17.7821 18.4163 16.9997C18.4163 16.2173 17.7821 15.583 16.9997 15.583C16.2173 15.583 15.583 16.2173 15.583 16.9997C15.583 17.7821 16.2173 18.4163 16.9997 18.4163Z" stroke="black" stroke-width="3" stroke-linecap="round" stroke-linejoin="round"/>
<path d="M16.9997 8.50033C17.7821 8.50033 18.4163 7.86606 18.4163 7.08366C18.4163 6.30126 17.7821 5.66699 16.9997 5.66699C16.2173 5.66699 15.583 6.30126 15.583 7.08366C15.583 7.86606 16.2173 8.50033 16.9997 8.50033Z" stroke="black" stroke-width="3" stroke-linecap="round" stroke-linejoin="round"/>
<path d="M16.9997 28.3333C17.7821 28.3333 18.4163 27.6991 18.4163 26.9167C18.4163 26.1343 17.7821 25.5 16.9997 25.5C16.2173 25.5 15.583 26.1343 15.583 26.9167C15.583 27.6991 16.2173 28.3333 16.9997 28.3333Z" stroke="black" stroke-width="3" stroke-linecap="round" stroke-linejoin="round"/>
</svg>
