<svg width="29" height="32" viewBox="0 0 29 32" fill="none" xmlns="http://www.w3.org/2000/svg">
<path d="M22.875 9.75C22.875 7.42936 21.9531 5.20376 20.3122 3.56282C18.6712 1.92187 16.4456 1 14.125 1C11.8044 1 9.57876 1.92187 7.93782 3.56282C6.29687 5.20376 5.375 7.42936 5.375 9.75C5.375 19.9583 1 22.875 1 22.875H27.25C27.25 22.875 22.875 19.9583 22.875 9.75Z" stroke="black" stroke-width="2" stroke-linecap="round" stroke-linejoin="round"/>
<path d="M16.6474 28.708C16.391 29.15 16.023 29.5169 15.5802 29.7719C15.1375 30.0269 14.6354 30.1612 14.1245 30.1612C13.6135 30.1612 13.1115 30.0269 12.6687 29.7719C12.226 29.5169 11.858 29.15 11.6016 28.708" stroke="black" stroke-width="2" stroke-linecap="round" stroke-linejoin="round"/>
</svg>
