<svg width="15" height="15" viewBox="0 0 15 15" fill="none" xmlns="http://www.w3.org/2000/svg">
<path fill-rule="evenodd" clip-rule="evenodd" d="M8.565 13.935L13.9425 8.5575C14.2219 8.27646 14.3787 7.89628 14.3787 7.5C14.3787 7.10372 14.2219 6.72354 13.9425 6.4425L7.5 0H0V7.5L6.4425 13.935C6.58181 14.0745 6.74724 14.1851 6.92934 14.2606C7.11144 14.3361 7.30663 14.3749 7.50375 14.3749C7.70087 14.3749 7.89606 14.3361 8.07816 14.2606C8.26026 14.1851 8.42569 14.0745 8.565 13.935ZM4.5 3C3.67157 3 3 3.67157 3 4.5C3 5.32843 3.67157 6 4.5 6C5.32843 6 6 5.32843 6 4.5C6 3.67157 5.32843 3 4.5 3Z" fill="#2C2D2F"/>
</svg>
