<svg class="analytics" width="var(--width)" height="var(--height)" viewBox="0 0 25 25" fill="var(--color)" xmlns="http://www.w3.org/2000/svg">
<path d="M16.25 15.625H18.125C18.4375 15.625 18.75 15.3125 18.75 15V8.4375C18.75 8.125 18.4375 7.8125 18.125 7.8125H16.25C15.9375 7.8125 15.625 8.125 15.625 8.4375V15C15.625 15.3125 15.9375 15.625 16.25 15.625ZM20.9375 15.625H22.8125C23.125 15.625 23.4375 15.3125 23.4375 15V3.75C23.4375 3.4375 23.125 3.125 22.8125 3.125H20.9375C20.625 3.125 20.3125 3.4375 20.3125 3.75V15C20.3125 15.3125 20.625 15.625 20.9375 15.625ZM6.875 15.625H8.75C9.0625 15.625 9.375 15.3125 9.375 15V11.5625C9.375 11.25 9.0625 10.9375 8.75 10.9375H6.875C6.5625 10.9375 6.25 11.25 6.25 11.5625V15C6.25 15.3125 6.5625 15.625 6.875 15.625ZM11.5625 15.625H13.4375C13.75 15.625 14.0625 15.3125 14.0625 15V5.3125C14.0625 5 13.75 4.6875 13.4375 4.6875H11.5625C11.25 4.6875 10.9375 5 10.9375 5.3125V15C10.9375 15.3125 11.25 15.625 11.5625 15.625ZM24.2188 18.75H3.125V3.90625C3.125 3.47461 2.77539 3.125 2.34375 3.125H0.78125C0.349609 3.125 0 3.47461 0 3.90625V20.3125C0 21.1753 0.699707 21.875 1.5625 21.875H24.2188C24.6504 21.875 25 21.5254 25 21.0938V19.5312C25 19.0996 24.6504 18.75 24.2188 18.75Z" fill="var(--color)"/>
</svg>
