<svg width="10" height="10" viewBox="0 0 10 10" fill="none" xmlns="http://www.w3.org/2000/svg">
<g clip-path="url(#clip0_1092_581)">
<path d="M3.11719 7.64584L4.40885 8.64584C4.57552 8.81251 4.95052 8.89584 5.20052 8.89584H6.78385C7.28385 8.89584 7.82552 8.52084 7.95052 8.02084L8.95052 4.97917C9.15885 4.39584 8.78385 3.89584 8.15885 3.89584H6.49219C6.24219 3.89584 6.03385 3.68751 6.07552 3.39584L6.28385 2.06251C6.36719 1.68751 6.11719 1.27084 5.74219 1.14584C5.40885 1.02084 4.99219 1.18751 4.82552 1.43751L3.11719 3.97917" stroke="#2E2E2E" stroke-miterlimit="10"/>
<path d="M0.992188 7.64581V3.56248C0.992188 2.97915 1.24219 2.77081 1.82552 2.77081H2.24219C2.82552 2.77081 3.07552 2.97915 3.07552 3.56248V7.64581C3.07552 8.22915 2.82552 8.43748 2.24219 8.43748H1.82552C1.24219 8.43748 0.992188 8.22915 0.992188 7.64581Z" stroke="#2E2E2E" stroke-linecap="round" stroke-linejoin="round"/>
</g>
<defs>
<clipPath id="clip0_1092_581">
<rect width="10" height="10" fill="white"/>
</clipPath>
</defs>
</svg>
