<svg width="var(--width)" height="var(--height)" viewBox="0 0 24 24" fill="none" xmlns="http://www.w3.org/2000/svg">
<path d="M7.87828 12.07C7.87828 11.66 8.21828 11.32 8.62828 11.32H14.1083V2.86C14.1059 2.63092 14.0132 2.41204 13.8502 2.25098C13.6873 2.08993 13.4674 1.99972 13.2383 2C7.34828 2 3.23828 6.11 3.23828 12C3.23828 17.89 7.34828 22 13.2383 22C13.7083 22 14.0983 21.62 14.0983 21.14V12.81H8.62828C8.53005 12.8121 8.43238 12.7945 8.34107 12.7582C8.24977 12.7219 8.16668 12.6677 8.09673 12.5987C8.02679 12.5297 7.97141 12.4473 7.93389 12.3565C7.89636 12.2657 7.87745 12.1683 7.87828 12.07Z" fill="var(--color)"/>
<path d="M20.5416 11.54L17.7016 8.68999C17.5604 8.55051 17.37 8.47229 17.1716 8.47229C16.9731 8.47229 16.7827 8.55051 16.6416 8.68999C16.3516 8.97999 16.3516 9.45999 16.6416 9.74999L18.2016 11.31H14.1016V12.81H18.1916L16.6316 14.37C16.3416 14.66 16.3416 15.14 16.6316 15.43C16.7816 15.58 16.9716 15.65 17.1616 15.65C17.3516 15.65 17.5416 15.58 17.6916 15.43L20.5316 12.58C20.8316 12.3 20.8316 11.83 20.5416 11.54Z" fill="var(--color)"/>
</svg>
