<svg width="var(--width)" height="var(--height)" viewBox="0 0 254 150" fill="none" xmlns="http://www.w3.org/2000/svg">
<path d="M184.548 0.916992C146.253 0.916992 115.096 34.1529 115.096 75.0003C115.096 101.844 94.6235 123.684 69.4563 123.684C44.2891 123.684 23.8125 101.844 23.8125 75.0003C23.8125 48.1568 44.2849 26.317 69.4521 26.317C78.5368 26.317 87.3083 29.1533 94.8182 34.5212C97.3286 36.3204 99.6738 38.3778 101.782 40.6384C106.274 45.4474 114.118 45.4644 118.618 40.6765C123.27 35.7362 123.287 27.6801 118.656 22.7144C115.439 19.2727 111.879 16.1443 108.077 13.4265C96.6301 5.24346 83.2781 0.921227 69.4521 0.921227C31.1573 0.916994 0 34.1529 0 75.0003C0 115.848 31.1573 149.084 69.4521 149.084C107.747 149.084 138.904 115.848 138.904 75.0003C138.904 48.1568 159.377 26.317 184.544 26.317C209.711 26.317 230.187 48.1568 230.187 75.0003C230.187 101.844 209.715 123.684 184.548 123.684C172.36 123.684 160.901 118.625 152.281 109.434C147.786 104.638 139.941 104.638 135.441 109.434C133.193 111.835 131.957 115.022 131.957 118.413C131.957 121.808 133.198 125 135.445 127.392C148.56 141.383 166.002 149.084 184.548 149.084C222.843 149.084 254 115.848 254 75.0003C254 34.1529 222.843 0.916992 184.548 0.916992Z" fill="var(--color)"/>
</svg>
