<svg width="var(--width)" height="var(--height)" viewBox="0 0 24 24" fill="none" xmlns="http://www.w3.org/2000/svg">
<path d="M21.5287 15.93C21.3687 15.66 20.9187 15.24 19.7987 15.44C19.1787 15.55 18.5487 15.6 17.9187 15.57C16.7951 15.519 15.6931 15.2432 14.678 14.7588C13.6629 14.2745 12.7552 13.5914 12.0087 12.75C10.7087 11.3 9.90873 9.40999 9.89873 7.36999C9.89873 6.22999 10.1187 5.12999 10.5687 4.08999C11.0087 3.07999 10.6987 2.54999 10.4787 2.32999C10.2487 2.09999 9.70873 1.77999 8.64873 2.21999C4.55873 3.93999 2.02873 8.03999 2.32873 12.43C2.62873 16.56 5.52873 20.09 9.36873 21.42C10.2997 21.7448 11.2736 21.9301 12.2587 21.97C12.4187 21.98 12.5787 21.99 12.7387 21.99C16.0887 21.99 19.2287 20.41 21.2087 17.72C21.8787 16.79 21.6987 16.2 21.5287 15.93Z" fill="var(--color)"/>
</svg>
