<svg width="var(--width)" height="var(--height)" viewBox="0 0 40 40" fill="none" xmlns="http://www.w3.org/2000/svg">
<path d="M30.0007 5H10.0007C6.31732 5 3.33398 7.96667 3.33398 11.6167V28.3833C3.33398 32.0333 6.31732 35 10.0007 35H30.0007C33.684 35 36.6673 32.0333 36.6673 28.3833V11.6167C36.6673 7.96667 33.684 5 30.0007 5ZM14.1673 11.95C16.284 11.95 18.0173 13.6833 18.0173 15.8C18.0173 17.9167 16.284 19.65 14.1673 19.65C12.0507 19.65 10.3173 17.9167 10.3173 15.8C10.3173 13.6833 12.0507 11.95 14.1673 11.95ZM20.6173 27.7667C20.4673 27.9333 20.234 28.0333 20.0007 28.0333H8.33398C8.10065 28.0333 7.86732 27.9333 7.71732 27.7667C7.64102 27.6807 7.58257 27.5805 7.54537 27.4718C7.50818 27.363 7.49297 27.248 7.50065 27.1333C7.63996 25.774 8.24573 24.5049 9.21498 23.5417C10.1842 22.5785 11.4571 21.9808 12.8173 21.85C13.7098 21.7667 14.6081 21.7667 15.5007 21.85C18.3007 22.1167 20.5507 24.3333 20.8173 27.1333C20.8507 27.3667 20.7673 27.6 20.6173 27.7667ZM31.6673 27.9167H28.334C27.6507 27.9167 27.084 27.35 27.084 26.6667C27.084 25.9833 27.6507 25.4167 28.334 25.4167H31.6673C32.3507 25.4167 32.9173 25.9833 32.9173 26.6667C32.9173 27.35 32.3507 27.9167 31.6673 27.9167ZM31.6673 21.25H25.0007C24.3173 21.25 23.7507 20.6833 23.7507 20C23.7507 19.3167 24.3173 18.75 25.0007 18.75H31.6673C32.3507 18.75 32.9173 19.3167 32.9173 20C32.9173 20.6833 32.3507 21.25 31.6673 21.25ZM31.6673 14.5833H23.334C22.6507 14.5833 22.084 14.0167 22.084 13.3333C22.084 12.65 22.6507 12.0833 23.334 12.0833H31.6673C32.3507 12.0833 32.9173 12.65 32.9173 13.3333C32.9173 14.0167 32.3507 14.5833 31.6673 14.5833Z" fill="var(--color)"/>
</svg>
