<svg width="var(--width)" height="var(--height)" viewBox="0 0 26 22" fill="none" xmlns="http://www.w3.org/2000/svg">
<path d="M24.425 8.37256H13.9375V15.2226C13.9375 15.7351 13.5125 16.1601 13 16.1601C12.4875 16.1601 12.0625 15.7351 12.0625 15.2226V8.37256H1.575C0.975 8.37256 0.5 8.84756 0.5 9.44756C0.5 16.8101 5.6375 21.9476 13 21.9476C20.3625 21.9476 25.5 16.8101 25.5 9.44756C25.5 8.84756 25.025 8.37256 24.425 8.37256Z" fill="var(--color)"/>
<path d="M13.9355 3.24998L15.8855 5.19998C16.248 5.56248 16.848 5.56248 17.2105 5.19998C17.573 4.83748 17.573 4.23748 17.2105 3.87498L13.648 0.324984C13.4716 0.150633 13.2336 0.0528564 12.9855 0.0528564C12.7375 0.0528564 12.4995 0.150633 12.323 0.324984L8.77305 3.88748C8.59805 4.07498 8.49805 4.31248 8.49805 4.54998C8.49805 4.78748 8.58555 5.02498 8.77305 5.21248C9.13555 5.57498 9.73555 5.57498 10.098 5.21248L12.048 3.26248V8.37498H13.923V3.24998H13.9355Z" fill="var(--color)"/>
</svg>
